<svg xmlns="http://www.w3.org/2000/svg" xml:space="preserve" width="2000" height="116" data-id="lg_tUWseqqwLeLuUiC5xA" data-version="1" viewBox="0 0 2000 116"><g data-padding="20"><g transform="translate(10 2.079)scale(.96416)"><rect width="587.129" height="122.04" x="492.544" y="-61.631" fill="none" rx="0" ry="0" transform="matrix(.95 0 0 .95 280 58.58)"/><path fill="#303030" d="M808.392 24.42h18.4l-20.25 64.99h-22.63l-19.23-64.99h18.41q1.65 5.14 3.5 11.72t3.65 13.42 3.19 12.75q1.38 5.92 2.1 9.82h.41q.72-3.9 2.11-9.82 1.39-5.91 3.19-12.7 1.8-6.78 3.65-13.36 1.85-6.59 3.5-11.83m24.27 40.3q0-13.78 5.86-19.85 5.86-6.06 19.85-6.06 9.35 0 15.01 2.67 5.65 2.67 8.17 8.38t2.52 14.86q0 9.05-2.52 14.71-2.52 5.65-8.17 8.27-5.66 2.63-15.01 2.63-13.99 0-19.85-6.02t-5.86-19.59m25.71 11.52q5.96 0 8.07-2.62 2.11-2.63 2.11-9.21 0-6.27-2.11-9-2.11-2.72-8.07-2.72-5.76 0-7.97 2.72-2.22 2.73-2.22 9 0 6.58 2.22 9.21 2.21 2.62 7.97 2.62m73-1.65.41.31v13.37q-2.57 1.03-7.61 1.54-5.04.52-10.7.52-8.12 0-13.52-2.27-5.4-2.26-8.02-7.81t-2.72-15.43q0-10.18 2.82-15.83 2.83-5.66 8.28-7.92t13.06-2.26q4.53 0 9.57.61 5.03.62 8.22 1.65l.1 13.78-.3.2q-3.09-.61-6.58-.92-3.5-.31-6.89-.31-6.89 0-9.57 2.57-2.67 2.57-2.67 8.64 0 4.63 1.13 6.89t3.8 2.98q2.68.72 7.31.72 3.59 0 6.89-.31 3.29-.31 6.99-.72m28.69-35.78q9.87 0 15.94 2.05 6.07 2.06 8.89 7.56 2.83 5.5 2.83 15.89V89.4h-14.91l-.51-4.73h-.31q-1.96 2.57-6.07 4.11-4.11 1.55-10.69 1.55-17.79 0-17.79-16.66 0-7.1 4.67-11.16 4.68-4.06 14.76-4.06h15.22q-.72-4.32-3.7-5.81t-10.18-1.49q-4.53 0-8.9.66-4.37.67-7.66 1.5l-.31-.21.11-11.93q2.05-.62 5.24-1.18 3.19-.57 6.74-.88 3.54-.3 6.63-.3m-.62 39.38q6.38 0 9.57-1.59 3.18-1.6 3.29-5.09v-2.57h-11.62q-4.53 0-6.33 1.28-1.8 1.29-1.8 3.45 0 2.57 1.85 3.54 1.85.98 5.04.98m89.88-16.04q0 13.88-5.66 21.03-5.65 7.15-19.23 7.15-7.61 0-14.14-.57t-11.46-1.39l-.31-.2V20.19h16.45v26.84h.41q1.44-3.7 4.79-5.96 3.34-2.26 9.51-2.26 19.64 0 19.64 23.34m-34.35 1.75v12.03q2.47.41 5.76.41 4.83 0 7.56-.87 2.72-.88 3.86-3.45 1.13-2.57 1.13-7.4 0-6.07-1.75-8.95t-7.2-2.88q-4.11 0-6.74 2.52-2.62 2.52-2.62 8.59m105.31-25.09q7.6 0 12.08 5.03 4.47 5.04 4.47 17.49V89.4h-16.45l-.1-26.02q0-5.04-1.5-7.3-1.49-2.26-5.81-2.26t-5.81 2.26-1.49 7.3V89.4h-16.45l-.1-26.02q0-5.04-1.49-7.3-1.5-2.26-5.82-2.26-4.31 0-5.81 2.26-1.49 2.26-1.49 7.3V89.4h-16.45V39.32h15.63l.82 9.15h.31q1.34-4.52 4.68-7.09t9.51-2.57 9.72 2.57 4.58 7.09h.31q1.33-4.63 5.19-7.14 3.86-2.52 11.47-2.52m46.89 0q9.87 0 15.94 2.05 6.06 2.06 8.89 7.56t2.83 15.89V89.4h-14.91l-.51-4.73h-.31q-1.96 2.57-6.07 4.11-4.11 1.55-10.7 1.55-17.79 0-17.79-16.66 0-7.1 4.68-11.16t14.76-4.06h15.22q-.72-4.32-3.7-5.81t-10.18-1.49q-4.53 0-8.9.66-4.37.67-7.66 1.5l-.31-.21.1-11.93q2.06-.62 5.25-1.18 3.19-.57 6.73-.88 3.55-.3 6.64-.3m-.62 39.38q6.38 0 9.56-1.59 3.19-1.6 3.3-5.09v-2.57h-11.63q-4.52 0-6.32 1.28-1.8 1.29-1.8 3.45 0 2.57 1.85 3.54 1.85.98 5.04.98m40.11-3.8v-21.6h-6.17V39.42h7.71l3.08-12.23h11.83v12.23h11.21v13.37h-11.21v18q0 2.88.72 3.96t3.29 1.08q1.65 0 3.5-.16 1.85-.15 3.7-.36l.31.21v13.37q-4.94 1.44-13.06 1.44-8.13 0-11.52-3.71-3.39-3.7-3.39-12.23m81.34 1.95v11.42q-2.88 1.02-7.97 1.79-5.09.78-12.08.78-8.85 0-15.07-2.32-6.22-2.31-9.41-7.92-3.19-5.6-3.19-15.58 0-13.57 6.22-19.64 6.23-6.06 19.29-6.06 9.35 0 14.75 2.67t7.72 7.56q2.31 4.88 2.31 11.57 0 1.95-.15 4.21-.16 2.27-.57 4.42l-.41.42h-33.83q.72 4.52 4.26 5.96 3.55 1.44 11.57 1.44 5.35 0 8.9-.26 3.55-.25 7.25-.77Zm-32.7-17.48h20.98q0-2.47-.78-4.27-.77-1.8-3.03-2.78-2.26-.97-6.68-.97-6.48 0-8.49 2.21-2 2.21-2 5.81"/></g><path fill="transparent" stroke="transparent" d="M721 0h558v116H721z"/></g></svg>